<svg width="41" height="33" viewBox="0 0 41 33" fill="none" xmlns="http://www.w3.org/2000/svg">
<path fill-rule="evenodd" clip-rule="evenodd" d="M32.2853 0.296333C30.7223 -0.0703332 29.0995 -0.0970506 27.5254 0.217967C25.9513 0.532984 24.4621 1.18248 23.1576 2.12302C21.9532 2.99135 20.9317 4.08928 20.1504 5.35315C18.377 4.56366 16.4145 4.12503 14.35 4.12503C6.42471 4.12503 0 10.5889 0 18.5625C0 26.5361 6.42471 33 14.35 33C14.6263 33 14.9009 32.9921 15.1736 32.9766C15.2446 32.9919 15.3182 33 15.3937 33H29.725C34.8198 33 38.95 28.8446 38.95 23.7187C38.95 22.0982 38.5372 20.5746 37.8116 19.2487C38.8914 18.1305 39.7311 16.7998 40.2773 15.3396C40.8427 13.8283 41.0808 12.2131 40.9759 10.6018C40.8709 8.99055 40.4252 7.4204 39.6687 5.99634C38.9121 4.57228 37.8621 3.32713 36.5888 2.34415C35.3155 1.36116 33.8483 0.662999 32.2853 0.296333Z" fill="white"/>
</svg>
