<svg width="77" height="50" viewBox="0 0 77 50" fill="none" xmlns="http://www.w3.org/2000/svg">
<path fill-rule="evenodd" clip-rule="evenodd" d="M15 0C6.71573 0 0 6.71573 0 15V35C0 43.2843 6.71573 50 15 50H62C70.2843 50 77 43.2843 77 35V15C77 6.71573 70.2843 0 62 0H15ZM43.5254 9.21797C45.0995 8.90295 46.7223 8.92967 48.2853 9.29633C49.8483 9.663 51.3155 10.3612 52.5888 11.3441C53.8621 12.3271 54.9121 13.5723 55.6687 14.9963C56.4252 16.4204 56.8709 17.9906 56.9759 19.6018C57.0808 21.2131 56.8427 22.8283 56.2773 24.3396C55.7311 25.7998 54.8914 27.1305 53.8116 28.2487C54.5372 29.5746 54.95 31.0982 54.95 32.7187C54.95 37.8446 50.8198 42 45.725 42H31.3937C31.3182 42 31.2446 41.9919 31.1736 41.9766C30.9009 41.9921 30.6263 42 30.35 42C22.4247 42 16 35.5361 16 27.5625C16 19.5889 22.4247 13.125 30.35 13.125C32.4145 13.125 34.377 13.5637 36.1504 14.3531C36.9317 13.0893 37.9532 11.9913 39.1576 11.123C40.4621 10.1825 41.9513 9.53299 43.5254 9.21797ZM54.3587 23.6131C53.9566 24.6881 53.3601 25.6772 52.601 26.5312C50.9118 24.6324 48.4571 23.4375 45.725 23.4375C44.8214 23.4375 43.9421 22.787 43.494 21.7607C42.3316 19.0985 40.3929 16.856 37.9657 15.3239C38.5948 14.3396 39.404 13.4827 40.3516 12.7995C41.419 12.03 42.6374 11.4986 43.9253 11.2408C45.2132 10.9831 46.5409 11.005 47.8198 11.305C49.0986 11.6049 50.299 12.1762 51.3408 12.9804C52.3826 13.7847 53.2417 14.8035 53.8607 15.9686C54.4797 17.1337 54.8444 18.4184 54.9303 19.7367C55.0161 21.055 54.8213 22.3766 54.3587 23.6131ZM30.35 15.1875C23.5569 15.1875 18.05 20.728 18.05 27.5625C18.05 34.397 23.5569 39.9375 30.35 39.9375C30.6626 39.9375 30.9723 39.9258 31.2787 39.9028C31.4021 39.8935 31.5219 39.9062 31.6344 39.9375H45.725C49.6877 39.9375 52.9 36.7055 52.9 32.7187C52.9 28.7319 49.6877 25.5 45.725 25.5C43.8079 25.5 42.3035 24.1622 41.6171 22.5903C39.713 18.2296 35.3835 15.1875 30.35 15.1875Z" fill="white"/>
</svg>
